<?xml version="1.0" encoding="UTF-8" standalone="no"?><!DOCTYPE svg PUBLIC "-//W3C//DTD SVG 1.1//EN" "http://www.w3.org/Graphics/SVG/1.1/DTD/svg11.dtd"><svg width="100%" height="100%" viewBox="0 0 92 92" version="1.1" xmlns="http://www.w3.org/2000/svg" xmlns:xlink="http://www.w3.org/1999/xlink" xml:space="preserve" xmlns:serif="http://www.serif.com/" style="fill-rule:evenodd;clip-rule:evenodd;stroke-linejoin:round;stroke-miterlimit:2;"><g id="_.key"><circle id="_.chave" cx="45.833" cy="45.833" r="45.833" style="fill:#ccc;"/><clipPath id="_clip1"><rect id="xmark.svg" x="30.093" y="29.889" width="31.481" height="31.888"/></clipPath><g clip-path="url(#_clip1)"><path d="M53.686,31.264c1.797,-1.826 4.72,-1.834 6.528,-0.018c1.806,1.815 1.814,4.767 0.018,6.591l-7.888,8l7.896,8.007c1.781,1.811 1.757,4.744 -0.055,6.552c-1.812,1.807 -4.725,1.803 -6.506,-0.008l-7.842,-7.952l-7.856,7.967c-1.798,1.825 -4.72,1.833 -6.528,0.017c-1.806,-1.815 -1.815,-4.767 -0.018,-6.591l7.888,-7.999l-7.896,-8.007c-1.782,-1.811 -1.757,-4.745 0.054,-6.553c1.812,-1.806 4.725,-1.802 6.507,0.008l7.842,7.953l7.856,-7.967Z" style="fill:#fff;"/></g></g></svg>